<?xml version="1.0" encoding="UTF-8"?>
<svg version="1.1" xmlns="http://www.w3.org/2000/svg" width="256" height="256">
<path d="M0 0 C1.26070313 -0.05607422 1.26070313 -0.05607422 2.546875 -0.11328125 C6.30391729 0.4785072 8.31982604 1.9082547 11.25 4.3125 C13.12890625 7.11328125 13.12890625 7.11328125 14.8125 10.625 C15.13492676 11.29523193 15.45735352 11.96546387 15.78955078 12.65600586 C20.23212236 22.09977745 24.14642743 31.7978522 28.13845825 41.43859863 C31.76170394 50.18846856 35.50895082 58.87879082 39.35498047 67.53344727 C39.73928223 68.40541748 40.12358398 69.2773877 40.51953125 70.17578125 C40.85573486 70.93157471 41.19193848 71.68736816 41.53833008 72.46606445 C42.25 74.3125 42.25 74.3125 42.25 76.3125 C42.9344368 76.37069916 43.6188736 76.42889832 44.3240509 76.48886108 C50.86697989 77.04556347 57.40974725 77.60412695 63.95235157 78.1646328 C67.31361153 78.45253031 70.67493901 78.73957444 74.03637695 79.02539062 C81.64638602 79.67268854 89.25479594 80.33513797 96.86187744 81.01599121 C99.96206174 81.28730132 103.0631537 81.53752517 106.16552734 81.78222656 C107.86432902 81.92951953 109.56306578 82.07756436 111.26171875 82.2265625 C112.00162552 82.27831635 112.74153229 82.33007019 113.50386047 82.38339233 C119.28851554 82.92473009 123.03356997 85.08667832 127.09375 89.1640625 C129.58136917 93.78632785 128.8909236 99.24856898 128.25 104.3125 C126.58678815 107.2948109 125.78761164 108.28904497 123.25 110.3125 C122.48300781 110.94929688 121.71601563 111.58609375 120.92578125 112.2421875 C119.07914923 113.7572345 117.22163558 115.25908129 115.35546875 116.75 C111.95976058 119.50568509 108.75936398 122.45549275 105.5625 125.4375 C105.00554443 125.95650879 104.44858887 126.47551758 103.87475586 127.01025391 C102.80513782 128.00712073 101.735556 129.00402641 100.66601562 130.00097656 C97.59271842 132.84748563 94.42896072 135.58528633 91.25 138.3125 C90.72760742 138.76125488 90.20521484 139.21000977 89.66699219 139.67236328 C86.68522073 142.23345964 83.70132418 144.79205262 80.71484375 147.34765625 C80.15394043 147.84152832 79.59303711 148.33540039 79.01513672 148.84423828 C77.25 150.3125 77.25 150.3125 75.22314453 151.66748047 C73.19214827 153.10222095 71.75229604 154.32946454 70.25 156.3125 C69.53003757 164.12151894 72.60247097 172.76812892 74.41015625 180.28125 C74.72348368 181.61043086 75.03592066 182.93982189 75.34751892 184.26940918 C76.66028614 189.86440255 77.98801466 195.45579551 79.32348633 201.04541016 C80.14456177 204.48476483 80.95463626 207.92656905 81.75839043 211.37001038 C82.21092355 213.29387062 82.67586445 215.21479899 83.14112854 217.13562012 C86.95257724 233.4817012 86.95257724 233.4817012 83.75 240.6875 C80.66680134 243.9248586 77.64769697 246.27056199 73.25 247.3125 C64.93722992 247.49259422 58.66536375 242.87328873 51.8125 238.6875 C50.53159302 237.91891484 49.24992465 237.15159727 47.9675293 236.38549805 C45.34277074 234.81433153 42.7230218 233.23529143 40.10742188 231.64892578 C36.46059298 229.43735875 32.80261222 227.24494579 29.140625 225.05859375 C24.98158984 222.57312899 20.82584688 220.08244491 16.67578125 217.58203125 C15.77037598 217.04271973 14.8649707 216.5034082 13.93212891 215.94775391 C12.09918097 214.83023295 10.2893803 213.67407785 8.50146484 212.48583984 C7.62828613 211.91687988 6.75510742 211.34791992 5.85546875 210.76171875 C5.0874292 210.24311279 4.31938965 209.72450684 3.52807617 209.19018555 C1.2329991 208.04539813 1.2329991 208.04539813 -1.28173828 209.02050781 C-2.50352783 209.66004395 -2.50352783 209.66004395 -3.75 210.3125 C-4.42683838 210.6619165 -5.10367676 211.01133301 -5.80102539 211.37133789 C-6.81410767 211.94742798 -6.81410767 211.94742798 -7.84765625 212.53515625 C-8.635354 212.98286377 -9.42305176 213.43057129 -10.23461914 213.8918457 C-11.08531982 214.38128662 -11.93602051 214.87072754 -12.8125 215.375 C-14.16299438 216.14880005 -14.16299438 216.14880005 -15.54077148 216.93823242 C-24.7168936 222.2320003 -33.76761634 227.73058835 -42.80297852 233.26000977 C-48.29313383 236.61723638 -53.79021539 239.96281177 -59.3203125 243.25390625 C-60.26277832 243.8166626 -61.20524414 244.37941895 -62.17626953 244.95922852 C-67.26274444 247.63370494 -70.91167222 247.86399834 -76.5 246.1875 C-80.48935847 243.88594704 -82.7019678 241.4085644 -84.75 237.3125 C-85.74537117 228.68136279 -83.45325183 220.39717639 -81.46875 212.07421875 C-81.13133396 210.62101079 -80.79505029 209.16753949 -80.45983887 207.71382141 C-79.58132926 203.9144133 -78.69077565 200.11794549 -77.79656982 196.32220459 C-76.3630185 190.23149245 -74.94443767 184.13732126 -73.5327301 178.04151344 C-73.03934321 175.92149424 -72.53856939 173.80331949 -72.0369873 171.68522644 C-71.73339177 170.38355253 -71.43003427 169.08182307 -71.12695312 167.7800293 C-70.72724304 166.08320259 -70.72724304 166.08320259 -70.31945801 164.35209656 C-69.79414519 161.54813381 -69.49715231 159.15095622 -69.75 156.3125 C-71.54567204 154.0533811 -71.54567204 154.0533811 -74.0625 152.0625 C-74.98160156 151.27875 -75.90070313 150.495 -76.84765625 149.6875 C-80.47488522 146.7193234 -84.11990449 143.77353762 -87.765625 140.828125 C-91.83101038 137.40128183 -95.67838965 133.76264786 -99.54882812 130.11914062 C-103.92399259 126.0225267 -108.46226438 122.19872623 -113.13671875 118.4453125 C-127.4378527 106.77353501 -127.4378527 106.77353501 -128.12109375 101.38671875 C-128.32251805 91.11407942 -128.32251805 91.11407942 -125.5625 87.625 C-120.67797926 83.6088385 -115.94245062 82.9152166 -109.77734375 82.34765625 C-108.99319595 82.26972336 -108.20904816 82.19179047 -107.40113831 82.11149597 C-104.830603 81.85837739 -102.25915967 81.6164051 -99.6875 81.375 C-97.906214 81.20251978 -96.12496435 81.02966388 -94.34375 80.85644531 C-76.82754061 79.16862572 -59.29189288 77.70481557 -41.75 76.3125 C-41.58179245 75.77733261 -41.4135849 75.24216522 -41.24028015 74.69078064 C-39.33523436 68.78771582 -37.06145503 63.12410293 -34.58203125 57.44140625 C-34.18352463 56.52020493 -33.78501801 55.5990036 -33.37443542 54.64988708 C-32.10729675 51.72339021 -30.83489735 48.79921367 -29.5625 45.875 C-28.72818999 43.94870872 -27.89420316 42.02227742 -27.06054688 40.09570312 C-25.42328065 36.31414396 -23.77673792 32.536824 -22.12353516 28.76220703 C-20.56315968 25.19657431 -19.03367374 21.62015311 -17.52880859 18.03076172 C-16.83565028 16.40460607 -16.14245563 14.77846591 -15.44921875 13.15234375 C-14.99649345 12.04530846 -14.99649345 12.04530846 -14.53462219 10.91590881 C-11.63499206 4.18664031 -7.53970131 0.21705201 0 0 Z " fill="#FFC107" transform="translate(127.75,4.6875)"/>
</svg>
